<svg xmlns="http://www.w3.org/2000/svg" viewBox="0 0 32 32" width="16px" height="16px" style="fill: rgb(38, 38, 38);" data-di-res-id="80af062-2e70869f" data-di-rand="1695475179047"><path d="M16.48.16h-.96C7.04.32.16 7.36.16 16 .16 24.8 7.2 31.84 16 31.84S31.84 24.8 31.84 16C31.84 7.36 24.96.32 16.48.16zm-6.24 4C9.6 5.28 8.96 6.56 8.48 8c-.8-.48-1.44-.96-1.76-1.44 1.12-.96 2.24-1.76 3.52-2.4zM4.96 8.8c.64.8 1.6 1.44 2.88 2.08-.16 1.12-.32 2.4-.32 3.84H2.88c.32-2.24.96-4.32 2.08-5.92zm-2.08 8.48h4.64L8 21.6c-1.28.48-2.24.96-3.04 1.76-1.12-1.76-1.76-3.84-2.08-6.08zm4 8.16c.32-.32.96-.8 1.92-1.28.48 1.44 1.12 2.72 1.92 3.84-1.44-.64-2.72-1.44-3.84-2.56zm7.84 2.72c-1.28-.64-2.4-2.4-3.2-4.64.96-.16 1.92-.32 3.2-.32v4.96zm0-7.68c-1.44 0-2.72.16-4 .48-.32-1.12-.32-2.24-.48-3.52h4.48v3.04zm0-5.76h-4.48c0-1.12.16-2.08.32-2.88 1.28.32 2.72.64 4.16.64v2.24zm0-5.12c-1.44 0-2.56-.32-3.68-.64C12 6.08 13.28 4 14.72 3.2v6.4zm14.4 5.12h-4.64c0-1.28-.16-2.56-.32-3.68a6.722 6.722 0 0 0 2.88-2.08c1.12 1.6 1.76 3.52 2.08 5.76zm-3.84-8c-.16.48-.8.96-1.76 1.44-.48-1.6-.96-2.88-1.76-4 1.44.64 2.56 1.6 3.52 2.56zm-8-3.52C18.72 4 20 6.08 20.8 9.12c-.8.32-2.08.48-3.52.48V3.2zm0 9.12c1.44 0 2.88-.32 4.16-.64.16.96.16 1.92.32 2.88h-4.48v-2.24zm0 15.84v-5.12c1.28 0 2.24.16 3.2.32-.64 2.4-1.92 4.16-3.2 4.8zm0-7.68v-3.04h4.48c0 1.28-.16 2.4-.48 3.36-1.12-.16-2.4-.32-4-.32zm4 7.52c.8-1.12 1.44-2.4 1.92-4 1.12.32 1.76.8 2.08 1.28-1.12 1.12-2.4 2.08-4 2.72zm5.76-4.8c-.64-.64-1.76-1.28-3.04-1.76.32-1.28.48-2.56.48-4h4.64c-.32 2.08-.96 4-2.08 5.76z"></path></svg>