<svg xmlns="http://www.w3.org/2000/svg" viewBox="0 0 32 32" width="16px" height="16px" style="fill: rgb(38, 38, 38);" data-di-res-id="80af062-1ac57993" data-di-rand="1695475179047"><path d="M12 13.92c.32.96.96 2.08 2.4 3.36 1.28 1.28 2.56 2.08 3.52 2.4.16 0 .32.16.48.16l4.32-4.32L32 24.8l-6.08 6.08c-1.12.64-2.88 1.12-5.44.8-3.84-.48-8.16-2.72-12.8-7.36S.8 15.36.32 11.52C0 8.96.48 7.2 1.28 6.24l.16-.32L7.04 0l9.28 9.28L12 13.44v.48zm7.84 8.96l-.48.16c-.48.16-1.44.16-2.4-.16-1.6-.48-3.2-1.44-4.96-3.2s-2.72-3.36-3.2-4.8c-.16-.64-.16-1.12-.16-1.6v-.48-.16l.16-.32 2.72-2.72-4.48-5.12-3.36 3.36c0 .16-.16.32-.16.64-.32.64-.32 1.6-.32 2.56.32 3.04 2.24 6.72 6.4 10.88s7.84 6.08 11.04 6.56c.96.16 1.92 0 2.72-.16.32 0 .48-.16.64-.16l3.36-3.36-4.64-4.64-2.88 2.72z"></path></svg>