<svg version="1.1" xmlns="http://www.w3.org/2000/svg" xmlns:xlink="http://www.w3.org/1999/xlink" x="0px" y="0px" width="20px" height="20px" viewBox="0 0 20 20" style="enable-background:new 0 0 20 20;" xml:space="preserve" data-di-res-id="4533b1a1-c69ed0af" data-di-rand="1695529107818"><style type="text/css" data-di-res-id="6e78b4e-63f4026c" data-di-rand="1695529107759">.st0{filter:url(#Adobe_OpacityMaskFilter);}.st1{mask:url(#mask-2_1_);}.st2{fill:#FFFFFF;}</style><g id="icons">	<g><path d="M10,0C4.5,0,0,4.5,0,10c0,5.5,4.5,10,10,10s10-4.5,10-10C20,4.5,15.5,0,10,0z M10,18c-4.4,0-8-3.6-8-8c0-4.4,3.6-8,8-8			s8,3.6,8,8C18,14.4,14.4,18,10,18z"></path><rect x="9" y="3.3" width="2" height="9.3"></rect><rect x="9" y="14.6" width="2" height="2"></rect></g></g></svg>